Coordinates
version=1
nRows=15
nColumns=42
inDegrees=yes

Units are S.I. units (second, meters, Newtons, ...)
If the header above contains a line with 'inDegrees', this indicates whether rotational values are in degrees (yes) or radians (no).

endheader
time	pelvis_tilt	pelvis_list	pelvis_rotation	pelvis_tx	pelvis_ty	pelvis_tz	hip_flexion_r	hip_adduction_r	hip_rotation_r	knee_angle_r	knee_adduction_r	knee_angle_r_beta	ankle_angle_r	subtalar_angle_r	mtp_angle_r	hip_flexion_l	hip_adduction_l	hip_rotation_l	knee_angle_l	knee_adduction_l	knee_angle_l_beta	ankle_angle_l	subtalar_angle_l	mtp_angle_l	lumbar_extension	lumbar_bending	lumbar_rotation	arm_flex_r	arm_add_r	arm_rot_r	elbow_flex_r	pro_sup_r	wrist_flex_r	wrist_dev_r	arm_flex_l	arm_add_l	arm_rot_l	elbow_flex_l	pro_sup_l	wrist_flex_l	wrist_dev_l
      0.55000000	      8.63935738	      0.91723482	      0.08877819	     -0.60806223	      1.00722535	     -0.26747450	     18.28347255	     -5.99566130	    -10.88557002	     19.44430116	      7.02317899	      0.33936708	      1.64237128	     -7.68004127	     -7.84539809	    -21.40208106	     -2.75043525	      0.54879885	      6.32976240	     11.65074561	      0.11047519	     14.42382009	      2.15634619	     -7.84539809	    -21.10967872	     -1.52008648	     -4.15429076	     -5.09684889	     -6.02305465	    -17.09955904	      9.42804993	     90.00000001	      0.00000000	      0.00000000	     20.81473096	    -18.88265178	     -3.14108233	     38.49583517	     90.00000001	      0.00000000	      0.00000000
      0.56000000	      8.43009648	      1.04764963	      0.24965243	     -0.59422138	      1.00438421	     -0.26690618	     18.27701072	     -6.12220434	    -11.57611981	     16.21549742	      7.50620439	      0.28301382	      1.84867494	     -5.89524401	     -7.83291110	    -21.92255188	     -2.72755108	      0.45785322	      6.62996508	     11.65693065	      0.11571472	     14.92179127	      2.58475964	     -7.83291110	    -20.88008129	     -1.54471282	     -4.32927449	     -5.51714141	     -5.95181800	    -18.43386522	      9.82029726	     90.00000001	      0.00000000	      0.00000000	     21.31200217	    -19.29858891	     -2.65014004	     39.56476461	     90.00000001	      0.00000000	      0.00000000
      0.57000000	      8.21284873	      1.07194866	      0.46044668	     -0.58014424	      1.00150227	     -0.26615160	     18.31246844	     -6.15263270	    -12.44983995	     13.45812081	      7.97056174	      0.23488852	      2.00808050	     -3.98657350	     -7.81075251	    -22.41420082	     -2.89812558	      0.34914993	      7.00357243	     11.74216477	      0.12223540	     15.42596125	      3.16464537	     -7.81075251	    -20.62467027	     -1.46675355	     -4.50600598	     -5.75706331	     -5.86379578	    -20.54925520	     10.04230684	     90.00000001	      0.00000000	      0.00000000	     21.72832684	    -19.70031016	     -2.25615161	     40.57346474	     90.00000001	      0.00000000	      0.00000000
      0.58000000	      8.03898656	      1.21170739	      0.63706335	     -0.56596392	      0.99872025	     -0.26560292	     18.36331001	     -6.36050411	    -13.02178408	     11.21919098	      8.55097375	      0.19581182	      2.17073626	     -2.44176873	     -7.79679790	    -22.93929040	     -2.87908501	      0.37994282	      7.39933854	     11.72333319	      0.12914282	     15.75076341	      3.54921414	     -7.79679790	    -20.41517442	     -1.48740929	     -4.72115147	     -6.15244218	     -5.81911979	    -21.72473095	     10.61871197	     90.00000001	      0.00000000	      0.00000000	     22.01472502	    -20.08502764	     -1.89951446	     41.62076218	     90.00000001	      0.00000000	      0.00000000
      0.59000000	      7.76194814	      1.38557115	      0.83258066	     -0.55181556	      0.99584285	     -0.26505796	     18.61478905	     -6.61234724	    -13.31770808	      9.56244232	      9.09144725	      0.16689610	      2.27395118	     -1.26616856	     -7.79006886	    -23.28682345	     -2.82980752	      0.57059059	      7.89629275	     11.66845650	      0.13781631	     16.00802015	      3.70583598	     -7.79006886	    -20.10976920	     -1.53992321	     -4.95707457	     -6.61405918	     -5.74198182	    -22.49732584	     11.27661503	     90.00000001	      0.00000000	      0.00000000	     22.27052463	    -20.38178058	     -1.79283494	     42.56025373	     90.00000001	      0.00000000	      0.00000000
      0.60000000	      7.69043743	      1.32253476	      1.10986741	     -0.53731088	      0.99333967	     -0.26447319	     18.63234078	     -6.57974531	    -13.65716276	      8.40102717	      9.44020222	      0.14662558	      2.42222200	     -0.17781513	     -7.78093130	    -23.87180805	     -3.10967778	      0.78846770	      8.38210289	     11.68514899	      0.14629529	     16.17445033	      3.93384720	     -7.78093130	    -20.00249036	     -1.30274655	     -5.20302199	     -6.94099817	     -5.70161461	    -23.51152249	     11.57084448	     90.00000001	      0.00000000	      0.00000000	     22.36474425	    -20.68636888	     -1.59826804	     43.56350747	     90.00000001	      0.00000000	      0.00000000
      0.61000000	      7.53928407	      1.22080052	      1.37706052	     -0.52276392	      0.99084323	     -0.26387888	     18.84387568	     -6.46571791	    -13.80564662	      7.88366651	      9.59656998	      0.13759594	      2.55405233	      0.66875586	     -7.76690563	    -24.29375212	     -3.43317819	      1.06069710	      9.01628959	     11.69228214	      0.15736394	     16.30843712	      4.18986282	     -7.76690563	    -19.80648828	     -1.01304023	     -5.43597227	     -7.22180507	     -5.65470031	    -24.48110634	     11.62869451	     90.00000001	      0.00000000	      0.00000000	     22.39839953	    -20.89392274	     -1.61076618	     44.40691888	     90.00000001	      0.00000000	      0.00000000
      0.62000000	      7.36820264	      1.17018099	      1.61508248	     -0.50813891	      0.98845156	     -0.26339360	     19.11634890	     -6.39452505	    -13.55458153	      7.84915988	      9.68016870	      0.13699368	      2.63304850	      0.93198768	     -7.76259088	    -24.64541118	     -3.65334644	      1.47376161	      9.72300793	     11.61858260	      0.16969850	     16.29772149	      4.18365074	     -7.76259088	    -19.58989668	     -0.75840931	     -5.66347354	     -7.62160838	     -5.62243418	    -24.72185341	     11.70415598	     90.00000001	      0.00000000	      0.00000000	     22.32185681	    -21.02602510	     -1.77264697	     45.20161298	     90.00000001	      0.00000000	      0.00000000
      0.63000000	      7.24401028	      1.07044741	      1.78574247	     -0.49334532	      0.98629323	     -0.26296854	     19.37119114	     -6.24528347	    -13.06427371	      8.27432252	      9.67187792	      0.14441417	      2.56781669	      1.01661621	     -7.76091477	    -25.07589916	     -3.86709983	      1.99287700	     10.36027997	     11.48967594	      0.18082100	     16.14991107	      4.26997339	     -7.76091477	    -19.40626441	     -0.43277196	     -5.75521788	     -8.03577304	     -5.63534990	    -24.75505685	     11.59195733	     90.00000001	      0.00000000	      0.00000000	     22.33355725	    -21.03418824	     -1.85808418	     45.56845669	     90.00000001	      0.00000000	      0.00000000
      0.64000000	      7.23455294	      0.72376830	      2.12860089	     -0.47824977	      0.98445305	     -0.26223037	     19.51741945	     -5.80331330	    -12.92968335	      9.19506335	      9.46242740	      0.16048413	      2.39480366	      0.53087163	     -7.75696436	    -25.49387480	     -4.53226168	      2.39042590	     11.28051422	     11.53837507	      0.19688211	     15.89480435	      4.10004855	     -7.75696436	    -19.33539506	      0.16146407	     -6.08461969	     -8.19419157	     -5.63531586	    -24.76216898	     11.00957461	     90.00000001	      0.00000000	      0.00000000	     21.82276701	    -21.18090309	     -2.23807030	     46.64211335	     90.00000001	      0.00000000	      0.00000000
      0.65000000	      7.17601504	      0.46452291	      2.37121404	     -0.46297197	      0.98280600	     -0.26173681	     19.62020249	     -5.48145116	    -12.30782410	     10.15213244	      9.36443912	      0.17718814	      2.03554096	      0.35509952	     -7.75488284	    -25.89511898	     -4.95929838	      3.01566929	     12.09573208	     11.42977560	      0.21111035	     15.56505648	      4.15410955	     -7.75488284	    -19.18730820	      0.69186232	     -6.20168308	     -8.52181515	     -5.64749922	    -24.71553808	     10.67048574	     90.00000001	      0.00000000	      0.00000000	     21.54188718	    -21.09931596	     -2.40750478	     47.00576777	     90.00000001	      0.00000000	      0.00000000
      0.66000000	      7.20326543	     -0.00865942	      2.63839083	     -0.44750122	      0.98147180	     -0.26096561	     19.80817175	     -4.92914010	    -12.34651717	     11.76715654	      9.10317739	      0.20537563	      1.17110076	     -0.64961952	     -7.75167411	    -26.27514246	     -5.74266572	      3.26041926	     13.17369215	     11.53109046	      0.22992430	     14.89021241	      3.88842180	     -7.75167411	    -19.12280809	      1.43704598	     -6.39701275	     -8.61448411	     -5.73976552	    -24.49128115	      9.87068177	     90.00000001	      0.00000000	      0.00000000	     20.92772075	    -21.06452680	     -2.94217515	     47.74004369	     90.00000001	      0.00000000	      0.00000000
      0.67000000	      7.07084584	     -0.65965504	      2.96918909	     -0.43169832	      0.98037172	     -0.26026109	     19.97416727	     -4.22214931	    -12.17270715	     13.13746210	      8.92578006	      0.22929197	     -0.05629911	     -1.85078374	     -7.74662084	    -26.40783018	     -6.67882724	      3.58780639	     14.36102336	     11.56149474	      0.25064714	     14.21118180	      3.62543544	     -7.74662084	    -18.83559883	      2.40357373	     -6.61327465	     -8.68574477	     -5.85601216	    -24.32101380	      9.23181857	     90.00000001	      0.00000000	      0.00000000	     20.16062310	    -20.89956561	     -3.50755365	     48.23695620	     90.00000001	      0.00000000	      0.00000000
      0.68000000	      7.09214458	     -1.58114020	      3.20044200	     -0.41596832	      0.97995931	     -0.25903242	     19.70517358	     -3.08745399	    -11.04976175	     13.84371801	      8.90572512	      0.24161846	     -2.32594618	     -5.13504256	     -7.72559179	    -26.58757109	     -7.94200770	      3.40331477	     15.79807301	     11.69998726	      0.27572839	     13.35331248	      3.69866637	     -7.72559179	    -18.73790380	      3.60238409	     -6.59037211	     -8.67890455	     -5.97038638	    -24.22970546	      8.69264875	     90.00000001	      0.00000000	      0.00000000	     19.49184126	    -20.64350096	     -4.09228277	     48.46817138	     90.00000001	      0.00000000	      0.00000000
      0.69000000	      7.13429624	     -2.10410341	      3.31519309	     -0.40005903	      0.97994598	     -0.25812800	     19.76682809	     -2.56240499	    -11.02103104	     15.54709309	      8.81142929	      0.27134796	     -3.45558496	     -5.72113665	     -7.72221038	    -26.76912708	     -8.61895276	      3.45393338	     17.20378610	     11.67318824	      0.30026271	     11.85734947	      3.21992241	     -7.72221038	    -18.67454300	      4.37795558	     -6.55700734	     -8.65463946	     -6.11086460	    -24.01058500	      8.34287040	     90.00000001	      0.00000000	      0.00000000	     18.75677282	    -20.34075370	     -4.58641066	     48.59384835	     90.00000001	      0.00000000	      0.00000000
